<svg height='100px' width='100px'  fill="#000000" xmlns="http://www.w3.org/2000/svg" viewBox="0 0 96 96" x="0px" y="0px"><title>education 18</title><g data-name="Layer 19"><path d="M81.06,57.06A3.77,3.77,0,0,0,81.67,55a3.84,3.84,0,0,0-3.84-3.83,3.8,3.8,0,0,0-2.39.86Q73,50,70.26,48c12.22-9,20.82-18.38,18-23.25s-15.2-2.09-29.14,4C57.41,13.62,53.63,1.5,48,1.5c-3.13,0-5.92,3.86-8.08,11.17l-.27,0A3.83,3.83,0,0,0,38.18,20c-.52,2.71-1,5.63-1.31,8.72-13.94-6.07-26.33-8.85-29.14-4S13.52,39,25.75,48c-12.23,9-20.83,18.38-18,23.25.95,1.64,3.06,2.47,6.23,2.47a33.39,33.39,0,0,0,7.61-1.09,3.79,3.79,0,0,0,3.18,1.7,3.83,3.83,0,0,0,3.83-3.79c2.63-.92,5.41-2,8.29-3.27C38.59,82.38,42.37,94.5,48,94.5s9.41-12.12,11.13-27.23c9,3.92,17.36,6.47,22.91,6.47,3,0,5.23-.76,6.23-2.49C90.42,67.52,85.67,61.58,81.06,57.06Zm-3.23-3.88A1.84,1.84,0,1,1,76,55,1.84,1.84,0,0,1,77.83,53.18Zm8.71-27.43c1.79,3.1-5,11.51-18,21C65.89,44.84,63,42.92,60,41c-.13-3.47-.36-6.92-.69-10.24C74.05,24.34,84.75,22.65,86.54,25.75ZM53.09,56.82c-1.7,1-3.4,1.91-5.1,2.82q-2.51-1.34-5.08-2.82t-5-3Q37.82,51,37.82,48c0-2,0-3.9.1-5.83,1.61-1,3.27-2,5-3s3.42-1.93,5.09-2.83q2.51,1.35,5.09,2.83c1.7,1,3.36,2,5,3q.09,2.84.09,5.82t-.09,5.82Q55.68,55.32,53.09,56.82ZM58,56.23c-.13,2.83-.32,5.54-.57,8.11-2.35-1.07-4.79-2.27-7.31-3.57q2-1.08,4-2.22T58,56.23ZM45.87,60.76C43.41,62,41,63.23,38.56,64.33c-.24-2.57-.43-5.28-.56-8.1q1.95,1.19,3.91,2.32T45.87,60.76Zm-10-8.22c-2.39-1.52-4.65-3-6.75-4.54q3.17-2.25,6.75-4.55c0,1.51-.06,3-.06,4.55S35.84,51,35.88,52.54ZM38,39.77c.13-2.77.32-5.48.57-8.11,2.34,1.08,4.78,2.27,7.29,3.57-1.33.72-2.65,1.47-4,2.22S39.3,39,38,39.77Zm12.12-4.54c2.51-1.31,5-2.5,7.3-3.57q.38,3.85.57,8.12c-1.29-.79-2.59-1.56-3.91-2.33S51.46,36,50.13,35.23Zm10,8.23c2.34,1.5,4.6,3,6.74,4.54-2.1,1.5-4.35,3-6.74,4.54,0-1.51.06-3,.06-4.54S60.16,45,60.12,43.46ZM39.65,14.64a1.84,1.84,0,1,1-1.83,1.83A1.84,1.84,0,0,1,39.65,14.64Zm.52,5.61a3.81,3.81,0,0,0,1.64-6.94C43.63,7.15,45.92,3.5,48,3.5c3.58,0,7.46,10.11,9.22,26.07-3,1.38-6.14,2.9-9.22,4.52-3.07-1.62-6.17-3.14-9.21-4.51C39.15,26.26,39.61,23.14,40.17,20.25ZM9.46,25.75c1.79-3.1,12.49-1.41,27.2,5.05-.33,3.29-.57,6.73-.7,10.24-2.94,1.86-5.81,3.78-8.53,5.73C14.49,37.27,7.67,28.85,9.46,25.75ZM24.75,72.33a1.83,1.83,0,1,1,1.83-1.83A1.83,1.83,0,0,1,24.75,72.33Zm3.31-3.73a3.82,3.82,0,0,0-7.14,1.9c0,.08,0,.15,0,.23C14.76,72.21,10.49,72,9.46,70.25c-1.79-3.1,5-11.52,18-21C30.15,51.18,33,53.1,36,55c.13,3.48.36,6.92.69,10.24C33.66,66.51,30.78,67.65,28.06,68.6ZM48,92.5c-3.58,0-7.46-10.11-9.22-26.08,3-1.36,6.1-2.87,9.22-4.51,3.08,1.62,6.17,3.13,9.22,4.51C55.46,82.39,51.58,92.5,48,92.5ZM86.54,70.25c-1.79,3.1-12.49,1.41-27.19-5,.33-3.33.56-6.77.69-10.25,2.94-1.85,5.81-3.77,8.52-5.72,2,1.48,3.92,3,5.7,4.43A3.77,3.77,0,0,0,74,55a3.8,3.8,0,0,0,5.58,3.4C85.11,63.81,87.71,68.22,86.54,70.25ZM48,41.31A6.69,6.69,0,1,0,54.69,48,6.7,6.7,0,0,0,48,41.31Zm0,11.38A4.69,4.69,0,1,1,52.69,48,4.7,4.7,0,0,1,48,52.69Z"></path></g></svg>